# xmcd
#
# Track frame offsets:
# 150
# 13201
# 27290
# 41485
# 56151
# 69177
# 83003
# 96247
# 109837
# 123643
# 138699
# 150996
# 165194
# 179215
# 192736
# 205212
# 219452
# 230972
#
# Disc length: 3269 seconds
#
#
# Revision: 0
# Processed by: cddbd v1.5.1PL0 Copyright (c) Steve Scherf et al.
# Submitted via: FreeRIP 2.92 
#
DISCID=080cc312
DTITLE=Charlie Parker con Dizzy Gillepie, Dobo Marmarosa, Duke Jordan, Max Roach - Maestros del Jazz and Blues
DYEAR=1900
DGENRE=
TTITLE0=Tiny's Tempo
TTITLE1=Red Cross
TTITLE2=Billie's Bounce
TTITLE3=Now's The Time
TTITLE4=Ko - Ko
TTITLE5=Moose The Mooche
TTITLE6=Yardbird Suite
TTITLE7=Ornithology
TTITLE8=Night In Tunisia
TTITLE9=Lover Man
TTITLE10=Bird's Nest
TTITLE11=Cool Blues
TTITLE12=Relaxin' At Camarillo
TTITLE13=Dexterity
TTITLE14=Bongo Bop
TTITLE15=Dewey Square
TTITLE16=The Hymn
TTITLE17=Bird Of Paradise
EXTD=
EXTT0=
EXTT1=
EXTT2=
EXTT3=
EXTT4=
EXTT5=
EXTT6=
EXTT7=
EXTT8=
EXTT9=
EXTT10=
EXTT11=
EXTT12=
EXTT13=
EXTT14=
EXTT15=
EXTT16=
EXTT17=
PLAYORDER=
